[url=http://imgboot.com/image/edman74/loveandotherdrugsmovie1.jpg][img]http://imgboot.com/images/edman74/loveandotherdrugsmovie1.jpg[/img][/url]



IMDb URL.......... http://www.imdb.com/title/tt0758752


[color=red]DETAILS:[/color]

General
Complete name                    : Love and Other Drugs TS Xvid-Chaos.avi
Format                           : AVI
Format/Info                      : Audio Video Interleave
File size                        : 1.04 GiB
Duration                         : 1h 47mn
Overall bit rate                 : 1 376 Kbps
Writing application              : My Secret


Video
ID                               : 0
Format                           : MPEG-4 Visual
Format profile                   : Advanced Simple@L5
Format settings, BVOP            : Yes
Format settings, QPel            : No
Format settings, GMC             : No warppoints
Format settings, Matrix          : Default (H.263)
Muxing mode                      : Packed bitstream
Codec ID                         : XVID
Codec ID/Hint                    : XviD
Duration                         : 1h 47mn
Bit rate                         : 1 236 Kbps
Width                            : 720 pixels
Height                           : 368 pixels
Display aspect ratio             : 1.957
Frame rate                       : 25.000 fps
Color space                      : YUV
Chroma subsampling               : 4:2:0
Bit depth                        : 8 bits
Scan type                        : Progressive
Bits/(Pixel*Frame)               : 0.187
Stream size                      : 953 MiB (90%)
Writing library                  : XviD 1.2.1 (UTC 2008-12-04)

Audio
ID                               : 1
Format                           : MPEG Audio
Format version                   : Version 1
Format profile                   : Layer 3
Mode                             : Joint stereo
Mode extension                   : MS Stereo
Codec ID                         : 55
Codec ID/Hint                    : MP3
Duration                         : 1h 47mn
Bit rate mode                    : Constant
Bit rate                         : 128 Kbps
Channel(s)                       : 2 channels
Sampling rate                    : 44.1 KHz
Stream size                      : 98.7 MiB (9%)
Alignment                        : Aligned on interleaves
Interleave, duration             : 26 ms (0.65 video frame)
Interleave, preload duration     : 522 ms
Writing library                  : LAME3.97






[color=red]SOURCES:[/color]

IMAGiNE.... thanx guys...


[color=red]NOTES:[/color]

i did the usual. ran it thru an RGB eq, adjusted gamma, brightness, hue, saturation, and sharpened then ran it thru a denoiser on medium setting..


[color=red]SCREENS:[/color] 

[url=http://imgboot.com/image/edman74/vlcsnap2011010922h08m42s5.png][img]http://imgboot.com/images/edman74/vlcsnap2011010922h08m42s5.png[/img][/url]
[url=http://imgboot.com/image/edman74/vlcsnap2011010922h08m46s51.png][img]http://imgboot.com/images/edman74/vlcsnap2011010922h08m46s51.png[/img][/url]
[url=http://imgboot.com/image/edman74/vlcsnap2011010922h09m06s232.png][img]http://imgboot.com/images/edman74/vlcsnap2011010922h09m06s232.png[/img][/url]
[url=http://imgboot.com/image/edman74/vlcsnap2011010922h10m23s236.png][img]http://imgboot.com/images/edman74/vlcsnap2011010922h10m23s236.png[/img][/url]



[color=red]Trackers:[/color]   
 
http://exodus.1337x.org/announce
 
http://tracker.publicbt.com:80/announce
 
http://pow7.com/announce

 
http://genesis.1337x.org:1337/announce


SCanned with:  KIS 2011.....Clean